<svg xmlns="http://www.w3.org/2000/svg" viewBox="0 0 512 512">
  <!-- 背景透明，番茄居中 -->
  <!-- 番茄主体 -->
  <circle cx="256" cy="270" r="160" fill="#dc2626"/>
  <!-- 高光 -->
  <circle cx="200" cy="220" r="50" fill="#f87171" opacity="0.5"/>
  <!-- 凹陷 -->
  <circle cx="256" cy="125" r="35" fill="#b91c1c"/>
  <!-- 叶子左 -->
  <path d="M230 120 Q150 70 130 110 Q160 70 220 100 Q180 80 230 120" fill="#22c55e"/>
  <!-- 叶子中 -->
  <path d="M256 115 Q256 45 256 35 Q266 70 270 90 Q265 60 276 40 Q266 80 256 115" fill="#22c55e"/>
  <!-- 叶子右 -->
  <path d="M282 120 Q360 70 382 110 Q352 70 292 100 Q332 80 282 120" fill="#22c55e"/>
  <!-- 表盘 -->
  <circle cx="256" cy="270" r="95" fill="#030712"/>
  <!-- 刻度12 -->
  <line x1="256" y1="190" x2="256" y2="200" stroke="#fff" stroke-width="4" stroke-linecap="round"/>
  <!-- 刻度3 -->
  <line x1="331" y1="270" x2="341" y2="270" stroke="#fff" stroke-width="4" stroke-linecap="round"/>
  <!-- 刻度6 -->
  <line x1="256" y1="350" x2="256" y2="340" stroke="#fff" stroke-width="4" stroke-linecap="round"/>
  <!-- 刻度9 -->
  <line x1="181" y1="270" x2="171" y2="270" stroke="#fff" stroke-width="4" stroke-linecap="round"/>
  <!-- 时针 -->
  <line x1="256" y1="270" x2="256" y2="215" stroke="#ef4444" stroke-width="8" stroke-linecap="round"/>
  <!-- 分针 -->
  <line x1="256" y1="270" x2="305" y2="290" stroke="#fff" stroke-width="5" stroke-linecap="round"/>
  <!-- 中心点 -->
  <circle cx="256" cy="270" r="8" fill="#ef4444"/>
</svg>